<svg width="20" height="16" viewBox="0 0 20 16" fill="none" xmlns="http://www.w3.org/2000/svg">
<path d="M4 4C5.10312 4 6 3.10312 6 2C6 0.896875 5.10312 0 4 0C2.89688 0 2 0.896875 2 2C2 3.10312 2.89688 4 4 4ZM16 4C17.1031 4 18 3.10312 18 2C18 0.896875 17.1031 0 16 0C14.8969 0 14 0.896875 14 2C14 3.10312 14.8969 4 16 4ZM19.9781 11.0781L18.5531 5.27187C18.45 4.85 18.0688 4.55313 17.6219 4.51562C17.1531 4.81875 16.5969 5 15.9969 5C15.3969 5 14.8406 4.81875 14.3719 4.51562C13.925 4.55313 13.5438 4.85 13.4406 5.27187L12.0156 11.0781C11.9062 11.55 12.2813 12 12.7875 12H14.5V15.25C14.5 15.6656 14.8344 16 15.25 16H16.75C17.1656 16 17.5 15.6656 17.5 15.25V12H19.2125C19.7187 12 20.0937 11.55 19.9781 11.0781ZM10.5 0H9.5C9.225 0 9 0.225 9 0.5V15.5C9 15.775 9.225 16 9.5 16H10.5C10.775 16 11 15.775 11 15.5V0.5C11 0.225 10.775 0 10.5 0ZM5.62813 4.5125C5.15938 4.81875 4.6 5 4 5C3.4 5 2.84063 4.81875 2.37188 4.5125C1.60313 4.57812 1 5.21562 1 6V10.25C1 10.6656 1.33437 11 1.75 11H2V15.25C2 15.6656 2.33437 16 2.75 16H5.25C5.66563 16 6 15.6656 6 15.25V11H6.25C6.66563 11 7 10.6656 7 10.25V6C7 5.21562 6.39688 4.57812 5.62813 4.5125Z" fill="black"/>
</svg>
